# xmcd CD database file
#
# Track frame offsets:
#	182
#	13132
#	27927
#	41390
#	57132
#	78052
#	91472
#	114072
#	126792
#	145862
#	166670
#	181132
#	202562
#	219120
#	237107
#	257452
#	288120
#	299145
#
# Disc length: 4379 seconds
#
# Revision: 4
# Processed by: cddbd v1.5.2PL0 Copyright (c) Steve Scherf et al.
# Submitted via: CDex 1.51
#
DISCID=de111912
DTITLE=Renaud - Renaud à Bobino
DYEAR=1980
DGENRE=Chanson
TTITLE0=Société, tu m'auras pas
TTITLE1=La chanson du loubard
TTITLE2=La bande à Lucien
TTITLE3=Ma gonzesse
TTITLE4=Les aventures de Gérard Lambert
TTITLE5=La teigne
TTITLE6=Hexagone
TTITLE7=Chanson pour Pierrot
TTITLE8=La tire à Dédé
TTITLE9=Les charognards
TTITLE10=Germaine
TTITLE11=L'auto-stoppeuse
TTITLE12=It Is Not Because You Are
TTITLE13=Mimi l'ennu
TTITLE14=Marche à l'ombre
TTITLE15=Dans mon H.L.M.
TTITLE16=Pourquoi d'abord ?
TTITLE17=Baston
EXTD=1980 - Renaud à Bobino YEAR: 1980
EXTT0=
EXTT1=
EXTT2=
EXTT3=
EXTT4=
EXTT5=
EXTT6=
EXTT7=
EXTT8=
EXTT9=
EXTT10=
EXTT11=
EXTT12=
EXTT13=
EXTT14=
EXTT15=
EXTT16=
EXTT17=
PLAYORDER=
